<svg xmlns="http://www.w3.org/2000/svg" width="277.577" height="122.372" viewBox="0 0 73.442 32.377">
  <path fill="#ffa200" d="M39.13 17.18v10.192c0 .525.136.94.407 1.244.27.288.592.432.965.432.71 0 .966.009 1.803.005l.003 3.322c-1.373.002-1.019 0-2.34 0-1.304 0-2.413-.431-3.327-1.295-.898-.864-1.346-2.04-1.346-3.53V17.18z" aria-label="lad"/>
  <path fill="#ffa200" d="M65.594 32.378c-1.609 0-3.048-.686-4.318-2.058-1.27-1.371-1.905-3.073-1.905-5.105 0-2.032.618-3.692 1.854-4.978 1.236-1.304 2.684-1.956 4.343-1.956 1.66 0 3.014.584 4.064 1.752v-5.64l1.905-1.701 1.905 1.7v17.783h-3.81v-1.804c-1.067 1.338-2.413 2.008-4.038 2.008zm-2.388-7.01c0 1.1.33 2.006.99 2.717.661.694 1.432 1.042 2.312 1.042.88 0 1.626-.348 2.235-1.042.627-.711.94-1.617.94-2.718 0-1.117-.313-2.04-.94-2.768-.61-.745-1.363-1.118-2.26-1.118-.898 0-1.668.373-2.312 1.118-.643.745-.965 1.668-.965 2.768z"/>
  <path fill="#333" d="M25.286 18.29q-2.616 0-4.572-1.955-1.956-1.956-1.956-5.131 0-3.2 2.007-5.105 2.007-1.905 4.648-1.905 2.058 0 3.582 1.371V4.422h3.835v13.665h-3.835V16.97q-1.626 1.32-3.709 1.32zm-2.692-7.01q0 1.676.99 2.743.991 1.042 2.312 1.042 1.32 0 2.235-1.042.914-1.067.914-2.718 0-1.676-.914-2.793t-2.26-1.118q-1.347 0-2.312 1.118-.965 1.092-.965 2.768zm27.399 7.01c-1.744 0-3.268-.652-4.572-1.955-1.304-1.304-1.956-3.014-1.956-5.131 0-2.134.669-3.835 2.007-5.105 1.337-1.27 2.887-1.905 4.648-1.905 1.371 0 2.565.457 3.581 1.371V4.422h3.835v13.875h-3.835V16.97a5.719 5.719 0 0 1-3.708 1.32zM47.3 11.28c0 1.118.33 2.032.99 2.743.661.694 1.432 1.042 2.312 1.042.88 0 1.626-.348 2.235-1.042.61-.711.915-1.617.915-2.718 0-1.117-.305-2.048-.915-2.793-.61-.746-1.363-1.118-2.26-1.118-.898 0-1.668.372-2.311 1.118-.644.728-.966 1.65-.966 2.768zm-12.006 6.891V.333h3.835v4.09h3.302v2.97h-3.302v9.928l-1.918 1.7-1.917-1.7" aria-label="data"/>
  <path fill="#333" d="M7.377 0 5.47 1.907l1.94 1.94h.283c.947 0 1.79.224 2.53.671a4.447 4.447 0 0 1 1.73 1.833c.43.791.645 1.703.645 2.736 0 1.015-.198 1.919-.594 2.71-.396.792-.946 1.403-1.652 1.834a4.283 4.283 0 0 1-.798.378c.195.207 1.746 1.536 1.746 1.536l-1.24 2.326c.957-.188 1.846-.49 2.667-.91 1.497-.758 2.65-1.824 3.46-3.201.825-1.377 1.238-2.952 1.238-4.724 0-1.773-.404-3.339-1.213-4.699-.809-1.376-1.945-2.444-3.408-3.2C11.359.379 9.689 0 7.796 0Z"/>
  <path fill="#ffa200" d="M49.994 32.378c-1.744 0-3.268-.652-4.572-1.956-1.304-1.304-1.956-3.014-1.956-5.13 0-2.134.669-3.836 2.007-5.106 1.337-1.27 2.887-1.905 4.648-1.905 1.371 0 2.565.457 3.581 1.371v-1.353l1.918-1.7 1.917 1.7v13.876h-3.835v-1.118a5.719 5.719 0 0 1-3.708 1.32zm-2.693-7.01c0 1.117.33 2.031.991 2.743.66.694 1.43 1.04 2.311 1.04.88 0 1.626-.346 2.236-1.04.61-.712.914-1.618.914-2.718 0-1.118-.305-2.05-.914-2.794-.61-.745-1.364-1.118-2.261-1.118s-1.668.373-2.311 1.118c-.644.728-.966 1.65-.966 2.768zm22.331-13.571 1.905-1.7 1.905 1.7v1.7l-1.905-1.7-1.905 1.7z"/>
  <path fill="#ffa200" d="m69.632 9.207 1.905-1.7 1.905 1.7v1.7l-1.905-1.7-1.905 1.7zM0 0v18.097h7.276c.552-.002.786-.101.786-.101l1.266-1.98-2.026-1.74H4.724V3.846l-.9-.9-1.04-1.04L4.691 0z"/>
</svg>
