<svg xmlns="http://www.w3.org/2000/svg" width="67.768" height="47.162" viewBox="-124.608 159.875 67.768 47.162">
  <path fill="#f3f3f3" d="M-119.856 159.975a4.643 4.643 0 0 0-4.652 4.652v37.54a4.643 4.643 0 0 0 4.652 4.652h58.264a4.643 4.643 0 0 0 4.652-4.653V170.76a4.792 4.792 0 0 0-4.79-4.476h-14.38s-1.317-.153-1.94-.636c-.447-.346-1.133-1.158-1.133-1.158-.419-.553-.912-1.402-1.968-2.46-1.057-1.06-2.783-2.055-5.282-2.055z"/>
  <rect width="67.568" height="36.177" x="-124.508" y="170.76" fill="#fff" stroke="#090700" stroke-dashoffset="1" stroke-width=".2" ry="4.652"/>
  <g fill="#ffa200">
    <path d="M-88.964 168.991c-.53 0-1.004-.226-1.423-.678-.419-.452-.628-1.013-.628-1.683s.204-1.217.611-1.641c.408-.43.885-.645 1.432-.645.547 0 .994.193 1.34.578v-.556l.628-.56.628.56v4.558h-1.256v-.594c-.352.441-.796.662-1.332.662zm-.787-2.31c0 .362.11.661.327.895.218.23.472.344.762.344s.536-.115.737-.344c.206-.234.31-.533.31-.895 0-.369-.104-.673-.31-.913a.926.926 0 0 0-.746-.369c-.295 0-.55.123-.762.369-.211.246-.318.55-.318.913z"/>
    <path d="m-87.632 163.51.628-.56.628.56v.56l-.628-.56-.628.56z"/>
    <path d="m-87.632 162.657.628-.56.628.56v.56l-.628-.56-.628.56z"/>
  </g>
  <path fill="#ffa200" d="M-97.547 162.11v5.231c0 .174.045.31.134.41.09.096.196.143.318.143.235 0 .319.003.595.002v1.094h-.77a1.54 1.54 0 0 1-1.097-.427c-.296-.285-.444-.673-.444-1.164v-5.29h1.264z"/>
  <path fill="#333" d="M-102.038 168.99c-.575 0-1.077-.216-1.507-.646-.43-.43-.645-.993-.645-1.691 0-.703.22-1.264.662-1.683.44-.419.952-.628 1.532-.628.452 0 .846.15 1.18.452v-.377h1.265v4.574h-1.264v-.437c-.357.29-.765.435-1.223.435zm-.887-2.312c0 .369.109.67.326.904.218.23.472.344.762.344.29 0 .536-.115.737-.344.201-.234.302-.533.302-.895 0-.369-.1-.676-.302-.922a.927.927 0 0 0-.745-.368c-.296 0-.55.123-.762.368-.212.24-.318.545-.318.913zm-7.217 2.312c-.575 0-1.078-.216-1.508-.646-.43-.43-.644-.993-.644-1.691 0-.703.22-1.264.661-1.683.441-.419.952-.628 1.532-.628.453 0 .846.15 1.181.452v-.377h1.264v4.574h-1.264v-.437c-.357.29-.765.435-1.222.435zm-.888-2.312c0 .369.109.67.327.904.217.23.471.344.762.344.29 0 .535-.115.736-.344.201-.234.302-.533.302-.895 0-.369-.1-.676-.302-.922a.927.927 0 0 0-.745-.368c-.296 0-.55.123-.762.368-.212.24-.318.545-.318.913z"/>
  <path fill="#ffa200" d="M-94.055 168.99c-.575 0-1.078-.216-1.507-.646-.43-.43-.645-.993-.645-1.691 0-.703.22-1.264.661-1.683.441-.419.952-.628 1.533-.628.452 0 .845.15 1.18.452v-.377h1.265v4.574h-1.265v-.437c-.357.29-.765.435-1.222.435zm-.888-2.312c0 .369.109.67.327.904.217.23.471.344.762.344.29 0 .536-.115.737-.344.2-.234.301-.533.301-.895 0-.369-.1-.676-.301-.922a.927.927 0 0 0-.746-.368c-.296 0-.55.123-.762.368-.212.24-.318.545-.318.913z"/>
  <g fill="#333">
    <path d="M-105.652 164.547v2.8c0 .174.045.31.134.411.09.095.196.142.318.142.235 0 .319.003.595.002v1.095h-.77a1.54 1.54 0 0 1-1.097-.427c-.296-.284-.444-.672-.444-1.164v-2.86l.632.373z"/>
    <path d="M-106.91 167.41v-3.957h1.265v.975h1.089v.98h-1.089v2.084l-.595.19-.67-.18"/>
  </g>
  <path fill="#333" d="m-116.579 162.137-.722.722.735.735h.107c.358 0 .678.084.958.254.28.163.499.394.655.694.163.3.245.645.245 1.037 0 .384-.075.726-.225 1.026a1.617 1.617 0 0 1-.928.837c.073.08.661.583.661.583l-.47.88c.363-.07.7-.185 1.01-.344a3.106 3.106 0 0 0 1.31-1.213c.314-.521.47-1.118.47-1.789 0-.671-.153-1.265-.46-1.78a3.132 3.132 0 0 0-1.29-1.212c-.548-.287-1.18-.43-1.897-.43z"/>
  <path fill="#ffa200" d="M-119.373 162.137v6.854h2.756c.209 0 .298-.038.298-.038l.48-.75-.768-.66h-.977v-3.95l-.34-.34-.394-.394.722-.722z"/>
  <path fill="#333" d="M-113.255 184.7v1.384q-.648-.346-1.305-.515-.648-.177-1.313-.177-1.487 0-2.31.918-.822.909-.822 2.559 0 1.65.822 2.567.823.91 2.31.91.665 0 1.313-.17.657-.177 1.305-.523v1.368q-.64.29-1.33.435-.681.145-1.454.145-2.102 0-3.34-1.28t-1.238-3.452q0-2.205 1.246-3.469 1.255-1.263 3.432-1.263.706 0 1.38.145.672.136 1.304.418zm6.888 4.136q-1.853 0-2.568.41-.714.411-.714 1.401 0 .789.531 1.255.54.46 1.463.46 1.271 0 2.035-.87.773-.877.773-2.326v-.33zm3.049-.611v5.142h-1.529V192q-.523.82-1.304 1.215-.781.387-1.911.387-1.43 0-2.277-.773-.84-.78-.84-2.084 0-1.521 1.048-2.294 1.055-.772 3.14-.772h2.144v-.145q0-1.022-.698-1.578-.69-.563-1.944-.563-.798 0-1.554.185t-1.454.555v-1.368q.84-.313 1.629-.466.789-.161 1.537-.161 2.019 0 3.016 1.014.997 1.014.997 3.074zm4.661-6.43v2.559h3.15v1.15h-3.15v4.894q0 1.102.308 1.416.315.314 1.27.314h1.571v1.24h-1.57q-1.77 0-2.443-.637-.673-.643-.673-2.333v-4.893h-1.122v-1.151h1.122v-2.56zm9.389 7.041q-1.853 0-2.567.41-.715.411-.715 1.401 0 .789.532 1.255.54.46 1.462.46 1.272 0 2.036-.87.773-.877.773-2.326v-.33zm3.05-.611v5.142h-1.53V192q-.523.82-1.304 1.215-.78.387-1.91.387-1.43 0-2.277-.773-.84-.78-.84-2.084 0-1.521 1.047-2.294 1.056-.772 3.141-.772h2.144v-.145q0-1.022-.698-1.578-.69-.563-1.944-.563-.798 0-1.554.185t-1.454.555v-1.368q.839-.313 1.628-.466.79-.161 1.537-.161 2.02 0 3.017 1.014.997 1.014.997 3.074zm3.148-7.38h1.53v12.522h-1.53zm8.334 4.547q-1.23 0-1.944.934-.714.925-.714 2.543 0 1.617.706 2.55.714.926 1.952.926 1.222 0 1.936-.933.715-.934.715-2.543 0-1.602-.715-2.535-.714-.942-1.936-.942zm0-1.255q1.995 0 3.133 1.255 1.138 1.256 1.138 3.477 0 2.213-1.138 3.476-1.138 1.256-3.133 1.256-2.002 0-3.14-1.256-1.13-1.263-1.13-3.476 0-2.221 1.13-3.477 1.138-1.255 3.14-1.255zm12.929 4.619q0-1.61-.69-2.495-.681-.885-1.919-.885-1.23 0-1.92.885-.68.885-.68 2.495 0 1.601.68 2.487.69.885 1.92.885 1.238 0 1.92-.885.689-.886.689-2.487zm1.529 3.493q0 2.301-1.055 3.42-1.056 1.126-3.233 1.126-.806 0-1.52-.12-.715-.113-1.388-.354v-1.44q.673.353 1.33.522.656.17 1.337.17 1.504 0 2.252-.765.748-.757.748-2.294v-.732q-.474.796-1.213 1.19-.74.395-1.77.395-1.712 0-2.758-1.263-1.047-1.264-1.047-3.348 0-2.092 1.047-3.356 1.046-1.263 2.758-1.263 1.03 0 1.77.394t1.213 1.191v-1.368h1.529z" aria-label="catalog"/>
</svg>
