<?xml version="1.0" encoding="UTF-8" standalone="no"?>
<!-- Created with Inkscape (http://www.inkscape.org/) -->

<svg
   xmlns:dc="http://purl.org/dc/elements/1.1/"
   xmlns:cc="http://creativecommons.org/ns#"
   xmlns:rdf="http://www.w3.org/1999/02/22-rdf-syntax-ns#"
   xmlns:svg="http://www.w3.org/2000/svg"
   xmlns="http://www.w3.org/2000/svg"
   xmlns:sodipodi="http://sodipodi.sourceforge.net/DTD/sodipodi-0.dtd"
   xmlns:inkscape="http://www.inkscape.org/namespaces/inkscape"
   width="18.5mm"
   height="18.5mm"
   viewBox="0 0 18.5 18.5"
   version="1.1"
   id="svg8"
   inkscape:version="0.92.4 (5da689c313, 2019-01-14)"
   sodipodi:docname="datalad_D.svg"
   inkscape:export-filename="/home/aqw/git/datalad.org/new_logo7.7.png"
   inkscape:export-xdpi="299.96201"
   inkscape:export-ydpi="299.96201">
  <defs
     id="defs2" />
  <sodipodi:namedview
     id="base"
     pagecolor="#ffffff"
     bordercolor="#666666"
     borderopacity="1.0"
     inkscape:pageopacity="1"
     inkscape:pageshadow="2"
     inkscape:zoom="2.8284271"
     inkscape:cx="78.764072"
     inkscape:cy="27.639378"
     inkscape:document-units="mm"
     inkscape:current-layer="layer8"
     showgrid="false"
     inkscape:window-width="1916"
     inkscape:window-height="1017"
     inkscape:window-x="2632"
     inkscape:window-y="35"
     inkscape:window-maximized="0"
     inkscape:measure-start="308.814,118.987"
     inkscape:measure-end="308.814,115.604"
     fit-margin-top="0"
     fit-margin-left="0"
     fit-margin-right="0"
     fit-margin-bottom="-0.4" />
  <metadata
     id="metadata5">
    <rdf:RDF>
      <cc:Work
         rdf:about="">
        <dc:format>image/svg+xml</dc:format>
        <dc:type
           rdf:resource="http://purl.org/dc/dcmitype/StillImage" />
        <dc:title></dc:title>
      </cc:Work>
    </rdf:RDF>
  </metadata>
  <g
     inkscape:groupmode="layer"
     id="layer8"
     inkscape:label="durr"
     style="display:inline"
     transform="translate(-10.076211,-8.3183922)">
    <g
       aria-label="data"
       transform="matrix(0.26458333,0,0,0.26458333,-10.022048,-59.473525)"
       style="font-style:normal;font-variant:normal;font-weight:bold;font-stretch:normal;font-size:20px;line-height:25px;font-family:Arial;-inkscape-font-specification:'Arial, Bold';text-align:start;letter-spacing:0px;word-spacing:0px;writing-mode:lr-tb;text-anchor:start;opacity:1;fill:#333333;fill-opacity:1;stroke:none;stroke-width:1px;stroke-linecap:butt;stroke-linejoin:miter;stroke-opacity:1"
       id="flowRoot4504-6"
       inkscape:export-xdpi="299.96201"
       inkscape:export-ydpi="299.96201" />
    <path
       style="font-style:normal;font-variant:normal;font-weight:bold;font-stretch:normal;font-size:192px;line-height:25px;font-family:Montserrat;-inkscape-font-specification:'Montserrat Bold';text-align:start;letter-spacing:0px;word-spacing:0px;writing-mode:lr-tb;text-anchor:start;fill:#333333;fill-opacity:1;stroke:none;stroke-width:0.13445187px;stroke-linecap:butt;stroke-linejoin:miter;stroke-opacity:1"
       d="m 17.981849,8.7212544 -1.906485,1.9064846 1.940098,1.940098 h 0.282821 c 0.946542,0 1.789879,0.223753 2.529901,0.671209 0.740024,0.430247 1.316456,1.041043 1.729492,1.832696 0.430247,0.791651 0.645475,1.703714 0.645475,2.736304 0,1.015381 -0.197915,1.918919 -0.593741,2.710572 -0.395827,0.791653 -0.946686,1.40271 -1.652289,1.832957 -0.252626,0.154039 -0.518946,0.279256 -0.798045,0.378146 0.194754,0.207133 1.7463,1.536742 1.7463,1.536742 l -1.241054,2.325074 c 0.957959,-0.187072 1.84731,-0.490146 2.667767,-0.909914 1.497255,-0.757234 2.650383,-1.824061 3.459245,-3.200848 0.826073,-1.376788 1.239217,-2.951585 1.239217,-4.724198 0,-1.772614 -0.404618,-3.338623 -1.21348,-4.6982 C 26.008208,11.68159 24.872392,10.614499 23.409555,9.8572668 21.963929,9.1000353 20.294568,8.7212544 18.401486,8.7212544 Z"
       id="path1711-6-2-1"
       inkscape:connector-curvature="0"
       sodipodi:nodetypes="cccsccssscccccsccsc"
       inkscape:export-xdpi="299.96201"
       inkscape:export-ydpi="299.96201" />
  </g>
  <g
     inkscape:groupmode="layer"
     id="layer9"
     inkscape:label="L"
     transform="translate(-10.076211,-8.3183922)">
    <path
       style="font-style:normal;font-variant:normal;font-weight:bold;font-stretch:normal;font-size:192px;line-height:25px;font-family:Montserrat;-inkscape-font-specification:'Montserrat Bold';text-align:start;letter-spacing:0px;word-spacing:0px;writing-mode:lr-tb;text-anchor:start;fill:#ffa200;fill-opacity:1;stroke:none;stroke-width:0.13445187px;stroke-linecap:butt;stroke-linejoin:miter;stroke-opacity:1"
       d="m 10.605378,8.721255 v 18.096381 c 0,0 6.723806,0.0017 7.275896,0 0.552089,-0.0017 0.786041,-0.100838 0.786041,-0.100838 l 1.26597,-1.979505 -2.025955,-1.740245 h -2.577755 v -10.42921 l -0.89967,-0.899934 -1.040165,-1.040164 -5.55e-4,-2.68e-4 c 1.3e-4,1.33e-4 0.957608,-0.957398 1.906482,-1.906223 z"
       id="path1711-6-2-1-9"
       inkscape:connector-curvature="0"
       sodipodi:nodetypes="cczcccccccccc"
       inkscape:export-xdpi="299.96201"
       inkscape:export-ydpi="299.96201" />
  </g>
</svg>
