<svg xmlns="http://www.w3.org/2000/svg" viewBox="-124.608 159.875 310.203 35.072">
  <path d="m95.601 269.443-.001 38.523c0 1.984.513 3.552 1.537 4.704 1.024 1.088 2.24 1.632 3.648 1.632 2.688 0 3.651.033 6.816.02l.01 12.553c-5.187.009-3.85.003-8.842.003-4.928 0-9.12-1.632-12.576-4.896-3.392-3.264-5.088-7.712-5.088-13.344v-39.195z" aria-label="lad" style="fill:#ffa200" transform="translate(-109.781 107.172) scale(.26458)"/>
  <path d="M75.67 41.099c-1.609 0-3.048-.686-4.318-2.058-1.27-1.371-1.905-3.073-1.905-5.105 0-2.032.618-3.692 1.854-4.978 1.236-1.304 2.684-1.956 4.343-1.956 1.66 0 3.014.584 4.064 1.752v-5.64l1.905-1.701 1.905 1.7v17.783h-3.81v-1.804C78.641 40.43 77.295 41.1 75.67 41.1zm-2.388-7.01c0 1.1.33 2.006.99 2.717.661.694 1.432 1.042 2.312 1.042.88 0 1.626-.348 2.235-1.042.627-.711.94-1.617.94-2.718 0-1.117-.313-2.04-.94-2.768-.61-.745-1.363-1.118-2.26-1.118-.898 0-1.668.373-2.312 1.118-.643.745-.965 1.668-.965 2.768z" style="fill:#ffa200" transform="translate(-133.693 152.56)"/>
  <path d="M171.533 326.878q-9.888 0-17.28-7.392-7.392-7.392-7.392-19.392 0-12.096 7.584-19.296 7.584-7.2 17.568-7.2 7.776 0 13.536 5.184v-4.32h14.496v51.648h-14.496v-4.224q-6.144 4.992-14.016 4.992zm-10.176-26.496q0 6.336 3.744 10.368 3.744 3.936 8.736 3.936 4.992 0 8.448-3.936 3.456-4.032 3.456-10.272 0-6.336-3.456-10.56t-8.544-4.224q-5.088 0-8.736 4.224-3.648 4.128-3.648 10.464zm103.556 26.496c-6.592 0-12.352-2.464-17.28-7.392-4.928-4.928-7.392-11.392-7.392-19.392 0-8.064 2.528-14.496 7.584-19.296 5.056-4.8 10.912-7.2 17.568-7.2 5.184 0 9.696 1.728 13.536 5.184v-4.32h14.496v52.44H278.93v-5.016c-4.096 3.328-8.768 4.992-14.016 4.992zm-10.176-26.496c0 4.224 1.248 7.68 3.744 10.368 2.496 2.624 5.408 3.936 8.736 3.936 3.328 0 6.144-1.312 8.448-3.936 2.304-2.688 3.456-6.112 3.456-10.272 0-4.224-1.152-7.744-3.456-10.56-2.304-2.816-5.152-4.224-8.544-4.224-3.392 0-6.304 1.408-8.736 4.224-2.432 2.752-3.648 6.24-3.648 10.464zm-45.38 26.046v-67.422h14.496v15.456h12.48v11.232h-12.48l-.001 22.272v15.25l-7.247 6.425-7.248-6.425" aria-label="data" style="fill:#333" transform="translate(-143.715 93.087) scale(.26458)"/>
  <path d="m17.453 8.721-1.907 1.907 1.94 1.94h.283c.947 0 1.79.224 2.53.671a4.447 4.447 0 0 1 1.73 1.833c.43.791.645 1.703.645 2.736 0 1.015-.198 1.919-.594 2.71-.396.792-.946 1.403-1.652 1.834a4.283 4.283 0 0 1-.798.378c.195.207 1.746 1.536 1.746 1.536l-1.24 2.326c.957-.188 1.846-.49 2.667-.91 1.497-.758 2.65-1.824 3.46-3.201.825-1.377 1.238-2.952 1.238-4.724 0-1.773-.404-3.339-1.213-4.699-.809-1.376-1.945-2.444-3.408-3.2-1.445-.758-3.115-1.137-5.008-1.137Z" style="fill:#333" transform="translate(-133.693 152.56)"/>
  <path d="M60.07 41.099c-1.744 0-3.268-.652-4.572-1.956-1.304-1.304-1.956-3.014-1.956-5.13 0-2.134.669-3.836 2.007-5.106 1.337-1.27 2.887-1.905 4.648-1.905 1.371 0 2.565.457 3.581 1.371V27.02l1.918-1.7 1.917 1.7v13.876h-3.835v-1.118a5.719 5.719 0 0 1-3.708 1.32zm-2.693-7.01c0 1.117.33 2.031.991 2.743.66.694 1.43 1.04 2.311 1.04.88 0 1.626-.346 2.236-1.04.61-.712.914-1.618.914-2.718 0-1.118-.305-2.05-.914-2.794-.61-.745-1.364-1.118-2.261-1.118s-1.668.373-2.311 1.118c-.644.728-.966 1.65-.966 2.768zm22.331-13.571 1.905-1.7 1.905 1.7v1.7l-1.905-1.7-1.905 1.7z" style="fill:#ffa200" transform="translate(-133.693 152.56)"/>
  <path d="m79.708 17.928 1.905-1.7 1.905 1.7v1.7l-1.905-1.7-1.905 1.7zM10.076 8.721v18.097h7.276c.552-.002.786-.101.786-.101l1.266-1.98-2.026-1.74H14.8v-10.43l-.9-.9-1.04-1.04 1.907-1.906z" style="fill:#ffa200" transform="translate(-133.693 152.56)"/>
  <path d="M27.489 234.898v-86.273l5.845-8.249 5.845 8.249v86.273h-11.69Z" style="fill:#ffa200" transform="rotate(90 33.334 187.637)"/>
  <path d="m79.087 187.64 5.845-8.238 5.845 8.238v8.238l-5.845-8.238-5.845 8.238Z" style="fill:#ffa200" transform="rotate(90 84.932 187.64)"/>
  <path d="m91.638 187.64 5.845-8.238 5.845 8.238v8.238l-5.845-8.238-5.845 8.238Z" style="fill:#ffa200" transform="rotate(90 97.483 187.64)"/>
  <path d="M36.976 43.404V25.566h3.835v16.988l-1.918 1.7-1.917-1.7" style="fill:#333" transform="matrix(0 3.05177 3.43937 0 -135.376 68.944)"/>
  <path d="M113.146 184.198v1.092q-.511-.273-1.029-.407-.511-.14-1.035-.14-1.174 0-1.822.724-.65.718-.65 2.019 0 1.301.65 2.025.648.717 1.822.717.524 0 1.035-.133.518-.14 1.029-.413v1.08q-.505.228-1.049.342-.537.114-1.146.114-1.659 0-2.635-1.009-.977-1.01-.977-2.723 0-1.74.983-2.736.99-.997 2.707-.997.557 0 1.088.115.53.108 1.029.33zm5.434 3.262q-1.462 0-2.026.324-.564.324-.564 1.105 0 .622.42.99.426.362 1.153.362 1.003 0 1.606-.686.61-.692.61-1.834v-.26zm2.404-.482v4.056h-1.206v-1.079q-.412.648-1.028.959-.617.304-1.508.304-1.127 0-1.796-.61-.662-.615-.662-1.643 0-1.2.826-1.81.833-.609 2.478-.609h1.69v-.114q0-.806-.55-1.244-.544-.444-1.534-.444-.629 0-1.225.146-.597.146-1.147.438v-1.08q.662-.247 1.284-.368.623-.127 1.213-.127 1.592 0 2.379.8.786.8.786 2.425zm3.677-5.072v2.019h2.484v.908h-2.484v3.859q0 .87.243 1.117.249.248 1.002.248h1.239v.977h-1.239q-1.396 0-1.927-.501-.53-.508-.53-1.841v-3.86h-.885v-.907h.885v-2.019zm7.562 5.554q-1.462 0-2.025.324-.564.324-.564 1.105 0 .622.42.99.425.362 1.153.362 1.003 0 1.606-.686.609-.692.609-1.834v-.26zm2.405-.482v4.056h-1.206v-1.079q-.413.648-1.029.959-.616.304-1.507.304-1.128 0-1.796-.61-.662-.615-.662-1.643 0-1.2.826-1.81.832-.609 2.477-.609h1.691v-.114q0-.806-.55-1.244-.544-.444-1.534-.444-.63 0-1.226.146t-1.147.438v-1.08q.662-.247 1.285-.368.623-.127 1.212-.127 1.593 0 2.38.8.786.8.786 2.425zm2.328-5.821h1.206v9.877h-1.206zm6.574 3.587q-.97 0-1.534.736-.564.73-.564 2.006 0 1.276.557 2.012.564.73 1.54.73.964 0 1.528-.736.563-.737.563-2.006 0-1.263-.563-2-.564-.742-1.527-.742zm0-.99q1.572 0 2.47.99.898.99.898 2.742 0 1.745-.898 2.742-.898.99-2.47.99-1.58 0-2.478-.99-.891-.997-.891-2.742 0-1.752.891-2.742.898-.99 2.478-.99zm10.197 3.643q0-1.27-.544-1.968-.537-.698-1.514-.698-.97 0-1.514.698-.537.698-.537 1.968 0 1.263.537 1.961.544.699 1.514.699.977 0 1.514-.699.544-.698.544-1.961zm1.206 2.755q0 1.815-.832 2.698-.833.888-2.55.888-.635 0-1.199-.095-.564-.089-1.094-.28v-1.135q.53.279 1.048.412.518.133 1.055.133 1.187 0 1.776-.603.59-.596.59-1.809v-.577q-.373.628-.957.94-.583.31-1.396.31-1.35 0-2.175-.996-.826-.997-.826-2.641 0-1.65.826-2.647.825-.996 2.175-.996.813 0 1.396.31.584.312.957.94v-1.08h1.206z" aria-label="catalog" style="fill:#333"/>
  <path d="m283.735 26.35 5.845-8.238 5.845 8.238v8.238l-5.845-8.238-5.845 8.238Z" style="fill:#ffa200" transform="rotate(90 146.229 44.32)"/>
  <path d="m296.286 26.35 5.845-8.238 5.845 8.238v8.238l-5.845-8.238-5.845 8.238Z" style="fill:#ffa200" transform="rotate(90 158.78 44.32)"/>
  <path d="M36.976 38.697V25.566l1.327.026c2.121.164 2.449 2.985 2.495 3.985l.013 3.05v9.927h-3.835" style="fill:#333" transform="matrix(0 3.05177 1.94946 0 -173.566 68.946)"/>
</svg>
